<svg width="33" height="32" viewBox="0 0 33 32" fill="none" xmlns="http://www.w3.org/2000/svg">
<path d="M1.27047 26.2C1.27047 25.7627 1.36647 25.3813 1.55847 25.056C1.7558 24.7253 2.0118 24.4667 2.32647 24.28C2.64114 24.0933 2.98247 24 3.35047 24C3.61714 24 3.8598 24.0347 4.07847 24.104C4.30247 24.1733 4.50514 24.272 4.68647 24.4C4.8678 24.5227 5.02247 24.6667 5.15047 24.832V23.936C4.9158 23.728 4.6598 23.5733 4.38247 23.472C4.10514 23.3707 3.76114 23.32 3.35047 23.32C2.96114 23.32 2.5958 23.392 2.25447 23.536C1.91847 23.6747 1.62247 23.8747 1.36647 24.136C1.11047 24.392 0.910469 24.696 0.766469 25.048C0.622469 25.4 0.550469 25.784 0.550469 26.2C0.550469 26.616 0.622469 27 0.766469 27.352C0.910469 27.704 1.11047 28.0107 1.36647 28.272C1.62247 28.528 1.91847 28.728 2.25447 28.872C2.5958 29.0107 2.96114 29.08 3.35047 29.08C3.76114 29.08 4.10514 29.0293 4.38247 28.928C4.6598 28.8267 4.9158 28.672 5.15047 28.464V27.568C5.02247 27.7333 4.8678 27.88 4.68647 28.008C4.50514 28.1307 4.30247 28.2267 4.07847 28.296C3.8598 28.3653 3.61714 28.4 3.35047 28.4C2.98247 28.4 2.64114 28.3067 2.32647 28.12C2.0118 27.9333 1.7558 27.6747 1.55847 27.344C1.36647 27.0133 1.27047 26.632 1.27047 26.2ZM6.90703 30.76V25.32H6.26703V30.76H6.90703ZM9.98703 27.16C9.98703 26.76 9.90436 26.4187 9.73903 26.136C9.5737 25.848 9.35236 25.6267 9.07503 25.472C8.80303 25.3173 8.49903 25.24 8.16303 25.24C7.85903 25.24 7.5897 25.3173 7.35503 25.472C7.1257 25.6267 6.94436 25.848 6.81103 26.136C6.68303 26.4187 6.61903 26.76 6.61903 27.16C6.61903 27.5547 6.68303 27.896 6.81103 28.184C6.94436 28.472 7.1257 28.6933 7.35503 28.848C7.5897 29.0027 7.85903 29.08 8.16303 29.08C8.49903 29.08 8.80303 29.0027 9.07503 28.848C9.35236 28.6933 9.5737 28.472 9.73903 28.184C9.90436 27.896 9.98703 27.5547 9.98703 27.16ZM9.33903 27.16C9.33903 27.4427 9.28036 27.6827 9.16303 27.88C9.05103 28.0773 8.89903 28.2267 8.70703 28.328C8.52036 28.4293 8.31236 28.48 8.08303 28.48C7.89636 28.48 7.71236 28.4293 7.53103 28.328C7.3497 28.2267 7.20036 28.0773 7.08303 27.88C6.9657 27.6827 6.90703 27.4427 6.90703 27.16C6.90703 26.8773 6.9657 26.6373 7.08303 26.44C7.20036 26.2427 7.3497 26.0933 7.53103 25.992C7.71236 25.8907 7.89636 25.84 8.08303 25.84C8.31236 25.84 8.52036 25.8907 8.70703 25.992C8.89903 26.0933 9.05103 26.2427 9.16303 26.44C9.28036 26.6373 9.33903 26.8773 9.33903 27.16ZM11.1575 27.92C11.1575 27.7707 11.1922 27.6427 11.2615 27.536C11.3309 27.4293 11.4349 27.3467 11.5735 27.288C11.7175 27.2293 11.8962 27.2 12.1095 27.2C12.3442 27.2 12.5549 27.232 12.7415 27.296C12.9282 27.3547 13.1122 27.448 13.2935 27.576V27.2C13.2562 27.152 13.1869 27.0907 13.0855 27.016C12.9842 26.936 12.8482 26.8667 12.6775 26.808C12.5122 26.744 12.3122 26.712 12.0775 26.712C11.7575 26.712 11.4802 26.7627 11.2455 26.864C11.0109 26.96 10.8295 27.0987 10.7015 27.28C10.5735 27.4613 10.5095 27.6827 10.5095 27.944C10.5095 28.1947 10.5655 28.4053 10.6775 28.576C10.7949 28.7413 10.9495 28.8667 11.1415 28.952C11.3335 29.0373 11.5442 29.08 11.7735 29.08C12.0295 29.08 12.2615 29.0373 12.4695 28.952C12.6775 28.8613 12.8429 28.7333 12.9655 28.568C13.0935 28.3973 13.1575 28.1947 13.1575 27.96L13.0295 27.56C13.0295 27.7893 12.9815 27.9733 12.8855 28.112C12.7949 28.2507 12.6669 28.352 12.5015 28.416C12.3362 28.48 12.1469 28.512 11.9335 28.512C11.7895 28.512 11.6589 28.4907 11.5415 28.448C11.4242 28.4 11.3309 28.3333 11.2615 28.248C11.1922 28.1573 11.1575 28.048 11.1575 27.92ZM11.1575 26.184C11.2162 26.1413 11.2962 26.0907 11.3975 26.032C11.5042 25.968 11.6295 25.9147 11.7735 25.872C11.9175 25.824 12.0775 25.8 12.2535 25.8C12.4562 25.8 12.6349 25.848 12.7895 25.944C12.9495 26.0347 13.0295 26.1733 13.0295 26.36V29H13.6695V26.36C13.6695 26.12 13.6082 25.9173 13.4855 25.752C13.3682 25.5867 13.2029 25.4613 12.9895 25.376C12.7815 25.2853 12.5362 25.24 12.2535 25.24C11.9229 25.24 11.6402 25.2907 11.4055 25.392C11.1709 25.4933 10.9842 25.5947 10.8455 25.696L11.1575 26.184ZM15.1283 27.08V27.416H16.1923C16.315 27.416 16.419 27.4293 16.5043 27.456C16.595 27.4773 16.667 27.512 16.7203 27.56C16.779 27.608 16.8217 27.6613 16.8483 27.72C16.8803 27.7787 16.8963 27.8453 16.8963 27.92C16.8963 28.064 16.8377 28.1867 16.7203 28.288C16.6083 28.3893 16.4323 28.44 16.1923 28.44H15.1283V29H16.3523C16.7737 29 17.075 28.904 17.2563 28.712C17.443 28.5147 17.5363 28.2773 17.5363 28C17.5363 27.76 17.4777 27.5733 17.3603 27.44C17.243 27.3067 17.083 27.2133 16.8803 27.16C16.6777 27.1067 16.4483 27.08 16.1923 27.08H15.1283ZM15.1283 27.24H16.1123C16.3417 27.24 16.5497 27.208 16.7363 27.144C16.9283 27.0747 17.083 26.9733 17.2003 26.84C17.3177 26.7013 17.3763 26.528 17.3763 26.32C17.3763 26.08 17.3177 25.888 17.2003 25.744C17.083 25.5947 16.9283 25.488 16.7363 25.424C16.5497 25.3547 16.3417 25.32 16.1123 25.32H15.1283V25.88H16.1123C16.3043 25.88 16.4563 25.9253 16.5683 26.016C16.6803 26.1013 16.7363 26.216 16.7363 26.36C16.7363 26.4293 16.7203 26.496 16.6883 26.56C16.6617 26.6187 16.6217 26.672 16.5683 26.72C16.515 26.768 16.4483 26.8053 16.3683 26.832C16.2937 26.8533 16.2083 26.864 16.1123 26.864H15.1283V27.24ZM14.7523 25.32V29H15.3923V25.32H14.7523ZM18.7533 27.36H21.4733V26.76H18.7533V27.36ZM21.0573 25.32V29H21.6973V25.32H21.0573ZM18.3773 25.32V29H19.0173V25.32H18.3773ZM25.9808 25.96L26.0208 25.04L22.9808 28.36L22.9408 29.28L25.9808 25.96ZM23.5808 25.32H22.9408V29.28L23.5808 28.4V25.32ZM26.0208 25.04L25.3808 25.92V29H26.0208V25.04ZM26.7002 25.32V25.92H28.8602V25.32H26.7002ZM27.4602 25.48V29H28.1002V25.48H27.4602ZM29.5023 25.32V29H30.1423V25.32H29.5023ZM29.8783 27.272H31.0223C31.257 27.272 31.433 27.3227 31.5503 27.424C31.6677 27.5253 31.7263 27.6693 31.7263 27.856C31.7263 27.9787 31.6997 28.0853 31.6463 28.176C31.593 28.2613 31.513 28.328 31.4063 28.376C31.305 28.4187 31.177 28.44 31.0223 28.44H29.8783V29H31.0223C31.2783 29 31.5077 28.96 31.7103 28.88C31.913 28.8 32.073 28.6747 32.1903 28.504C32.3077 28.3333 32.3663 28.1173 32.3663 27.856C32.3663 27.4613 32.2357 27.1733 31.9743 26.992C31.7183 26.8053 31.401 26.712 31.0223 26.712H29.8783V27.272Z" fill="#5D6C7B"/>
<mask id="path-2-inside-1_395_22247" fill="white">
<path d="M25.4141 11.2638H24.7766L22.7349 6.32541C23.0208 6.2865 23.2413 6.04205 23.2413 5.74549C23.2413 5.42189 22.979 5.15955 22.6554 5.15955H17.6177C17.3769 4.49076 16.7363 4.01123 15.9856 4.01123C15.2349 4.01123 14.5942 4.4908 14.3534 5.15955H9.34465C9.02105 5.15955 8.75871 5.42189 8.75871 5.74549C8.75871 6.04205 8.97926 6.2865 9.26512 6.32541L7.22344 11.2638H6.58594C6.26234 11.2638 6 11.5262 6 11.8497C6 14.1319 7.85668 15.9886 10.1388 15.9886C12.421 15.9886 14.2777 14.1319 14.2777 11.8497C14.2777 11.5262 14.0153 11.2638 13.6917 11.2638H13.0542L11.015 6.33143H14.3534C14.5942 7.00022 15.2348 7.47975 15.9856 7.47975C16.7363 7.47975 17.3769 7.00022 17.6177 6.33143H20.985L18.9459 11.2638H18.3083C17.9847 11.2638 17.7224 11.5262 17.7224 11.8497C17.7224 14.1319 19.5791 15.9886 21.8612 15.9886C24.1434 15.9886 26 14.1319 26 11.8497C26 11.5262 25.7377 11.2638 25.4141 11.2638ZM10.1388 14.8167C8.70332 14.8167 7.5027 13.7921 7.22996 12.4357H13.0477C12.775 13.7921 11.5743 14.8167 10.1388 14.8167ZM11.7861 11.2638H8.49152L10.1388 7.27928L11.7861 11.2638ZM15.9855 6.30787C15.6754 6.30787 15.4232 6.05561 15.4232 5.74549C15.4232 5.43537 15.6754 5.18311 15.9855 5.18311C16.2956 5.18311 16.5479 5.43537 16.5479 5.74549C16.5479 6.05561 16.2957 6.30787 15.9855 6.30787ZM21.8612 7.27928L23.5085 11.2638H20.2139L21.8612 7.27928ZM21.8612 14.8167C20.4257 14.8167 19.225 13.7921 18.9523 12.4357H24.77C24.4973 13.7921 23.2966 14.8167 21.8612 14.8167Z"/>
</mask>
<path d="M25.4141 11.2638H24.7766L22.7349 6.32541C23.0208 6.2865 23.2413 6.04205 23.2413 5.74549C23.2413 5.42189 22.979 5.15955 22.6554 5.15955H17.6177C17.3769 4.49076 16.7363 4.01123 15.9856 4.01123C15.2349 4.01123 14.5942 4.4908 14.3534 5.15955H9.34465C9.02105 5.15955 8.75871 5.42189 8.75871 5.74549C8.75871 6.04205 8.97926 6.2865 9.26512 6.32541L7.22344 11.2638H6.58594C6.26234 11.2638 6 11.5262 6 11.8497C6 14.1319 7.85668 15.9886 10.1388 15.9886C12.421 15.9886 14.2777 14.1319 14.2777 11.8497C14.2777 11.5262 14.0153 11.2638 13.6917 11.2638H13.0542L11.015 6.33143H14.3534C14.5942 7.00022 15.2348 7.47975 15.9856 7.47975C16.7363 7.47975 17.3769 7.00022 17.6177 6.33143H20.985L18.9459 11.2638H18.3083C17.9847 11.2638 17.7224 11.5262 17.7224 11.8497C17.7224 14.1319 19.5791 15.9886 21.8612 15.9886C24.1434 15.9886 26 14.1319 26 11.8497C26 11.5262 25.7377 11.2638 25.4141 11.2638ZM10.1388 14.8167C8.70332 14.8167 7.5027 13.7921 7.22996 12.4357H13.0477C12.775 13.7921 11.5743 14.8167 10.1388 14.8167ZM11.7861 11.2638H8.49152L10.1388 7.27928L11.7861 11.2638ZM15.9855 6.30787C15.6754 6.30787 15.4232 6.05561 15.4232 5.74549C15.4232 5.43537 15.6754 5.18311 15.9855 5.18311C16.2956 5.18311 16.5479 5.43537 16.5479 5.74549C16.5479 6.05561 16.2957 6.30787 15.9855 6.30787ZM21.8612 7.27928L23.5085 11.2638H20.2139L21.8612 7.27928ZM21.8612 14.8167C20.4257 14.8167 19.225 13.7921 18.9523 12.4357H24.77C24.4973 13.7921 23.2966 14.8167 21.8612 14.8167Z" fill="#5D6C7B"/>
<path d="M24.7766 11.2638L21.08 12.792L22.1019 15.2638H24.7766V11.2638ZM22.7349 6.32541L22.1956 2.36194L17.0571 3.06121L19.0384 7.85364L22.7349 6.32541ZM17.6177 5.15955L13.8543 6.51471L14.8067 9.15955H17.6177V5.15955ZM14.3534 5.15955V9.15955H17.1644L18.1168 6.51478L14.3534 5.15955ZM9.26512 6.32541L12.9617 7.85367L14.943 3.0613L9.80455 2.36195L9.26512 6.32541ZM7.22344 11.2638V15.2638H9.89809L10.92 12.7921L7.22344 11.2638ZM13.0542 11.2638L9.35762 12.792L10.3795 15.2638H13.0542V11.2638ZM11.015 6.33143V2.33143H5.03301L7.31848 7.85965L11.015 6.33143ZM14.3534 6.33143L18.1168 4.97627L17.1645 2.33143H14.3534V6.33143ZM17.6177 6.33143V2.33143H14.8067L13.8543 4.97627L17.6177 6.33143ZM20.985 6.33143L24.6816 7.85965L26.967 2.33143H20.985V6.33143ZM18.9459 11.2638V15.2638H21.6205L22.6424 12.792L18.9459 11.2638ZM7.22996 12.4357V8.43568H2.34559L3.30845 13.2242L7.22996 12.4357ZM13.0477 12.4357L16.9692 13.2242L17.9321 8.43568H13.0477V12.4357ZM11.7861 11.2638V15.2638H17.7682L15.4827 9.73556L11.7861 11.2638ZM8.49152 11.2638L4.79498 9.73556L2.50946 15.2638H8.49152V11.2638ZM10.1388 7.27928L13.8354 5.75103L10.1388 -3.19025L6.44228 5.75103L10.1388 7.27928ZM21.8612 7.27928L25.5577 5.75103L21.8612 -3.19025L18.1646 5.75103L21.8612 7.27928ZM23.5085 11.2638V15.2638H29.4905L27.205 9.73556L23.5085 11.2638ZM20.2139 11.2638L16.5173 9.73556L14.2318 15.2638H20.2139V11.2638ZM18.9523 12.4357V8.43568H14.0679L15.0308 13.2242L18.9523 12.4357ZM24.77 12.4357L28.6915 13.2242L29.6544 8.43568H24.77V12.4357ZM25.4141 7.26381H24.7766V15.2638H25.4141V7.26381ZM28.4731 9.73557L26.4315 4.79718L19.0384 7.85364L21.08 12.792L28.4731 9.73557ZM23.2743 10.2889C25.5083 9.98487 27.2413 8.07722 27.2413 5.74549H19.2413C19.2413 4.00688 20.5334 2.58814 22.1956 2.36194L23.2743 10.2889ZM27.2413 5.74549C27.2413 3.21276 25.1881 1.15955 22.6554 1.15955V9.15955C20.7698 9.15955 19.2413 7.63103 19.2413 5.74549H27.2413ZM22.6554 1.15955H17.6177V9.15955H22.6554V1.15955ZM21.3812 3.80439C20.5889 1.60401 18.4809 0.0112305 15.9856 0.0112305V8.01123C14.9916 8.01123 14.165 7.37751 13.8543 6.51471L21.3812 3.80439ZM15.9856 0.0112305C13.4902 0.0112305 11.3823 1.60405 10.59 3.80432L18.1168 6.51478C17.8061 7.37756 16.9795 8.01123 15.9856 8.01123V0.0112305ZM14.3534 1.15955H9.34465V9.15955H14.3534V1.15955ZM9.34465 1.15955C6.81192 1.15955 4.75871 3.21276 4.75871 5.74549H12.7587C12.7587 7.63103 11.2302 9.15955 9.34465 9.15955V1.15955ZM4.75871 5.74549C4.75871 8.07746 6.49204 9.98486 8.72568 10.2889L9.80455 2.36195C11.4665 2.58814 12.7587 4.00664 12.7587 5.74549H4.75871ZM5.56858 4.79715L3.5269 9.73555L10.92 12.7921L12.9617 7.85367L5.56858 4.79715ZM7.22344 7.26381H6.58594V15.2638H7.22344V7.26381ZM6.58594 7.26381C4.0532 7.26381 2 9.31701 2 11.8497H10C10 13.7353 8.47148 15.2638 6.58594 15.2638V7.26381ZM2 11.8497C2 16.341 5.64754 19.9886 10.1388 19.9886V11.9886C10.1151 11.9886 10.1011 11.9845 10.0898 11.9798C10.0758 11.9738 10.0586 11.9632 10.042 11.9465C10.0254 11.9299 10.0148 11.9128 10.0088 11.8987C10.004 11.8875 10 11.8734 10 11.8497H2ZM10.1388 19.9886C14.6301 19.9886 18.2777 16.341 18.2777 11.8497H10.2777C10.2777 11.8734 10.2736 11.8875 10.2688 11.8987C10.2629 11.9128 10.2522 11.9299 10.2356 11.9465C10.219 11.9632 10.2018 11.9738 10.1878 11.9798C10.1765 11.9845 10.1625 11.9886 10.1388 11.9886V19.9886ZM18.2777 11.8497C18.2777 9.31701 16.2245 7.26381 13.6917 7.26381V15.2638C11.8062 15.2638 10.2777 13.7353 10.2777 11.8497H18.2777ZM13.6917 7.26381H13.0542V15.2638H13.6917V7.26381ZM16.7507 9.73558L14.7116 4.8032L7.31848 7.85965L9.35762 12.792L16.7507 9.73558ZM11.015 10.3314H14.3534V2.33143H11.015V10.3314ZM10.5899 7.68658C11.3823 9.88702 13.4902 11.4797 15.9856 11.4797V3.47975C16.9795 3.47975 17.8061 4.11341 18.1168 4.97627L10.5899 7.68658ZM15.9856 11.4797C18.4809 11.4797 20.5889 9.88696 21.3812 7.68658L13.8543 4.97627C14.165 4.11347 14.9916 3.47975 15.9856 3.47975V11.4797ZM17.6177 10.3314H20.985V2.33143H17.6177V10.3314ZM17.2884 4.8032L15.2493 9.73558L22.6424 12.792L24.6816 7.85965L17.2884 4.8032ZM18.9459 7.26381H18.3083V15.2638H18.9459V7.26381ZM18.3083 7.26381C15.7756 7.26381 13.7224 9.31701 13.7224 11.8497H21.7224C21.7224 13.7353 20.1939 15.2638 18.3083 15.2638V7.26381ZM13.7224 11.8497C13.7224 16.341 17.3699 19.9886 21.8612 19.9886V11.9886C21.8375 11.9886 21.8235 11.9845 21.8122 11.9798C21.7982 11.9738 21.781 11.9632 21.7644 11.9465C21.7478 11.9299 21.7371 11.9128 21.7312 11.8987C21.7264 11.8875 21.7224 11.8734 21.7224 11.8497H13.7224ZM21.8612 19.9886C26.3525 19.9886 30 16.341 30 11.8497H22C22 11.8734 21.996 11.8875 21.9912 11.8988C21.9852 11.9128 21.9746 11.9299 21.958 11.9466C21.9414 11.9632 21.9242 11.9738 21.9102 11.9798C21.8989 11.9845 21.8849 11.9886 21.8612 11.9886V19.9886ZM30 11.8497C30 9.31701 27.9468 7.26381 25.4141 7.26381V15.2638C23.5285 15.2638 22 13.7353 22 11.8497H30ZM10.1388 10.8167C10.6486 10.8167 11.0566 11.1753 11.1515 11.6472L3.30845 13.2242C3.9488 16.4088 6.75808 18.8167 10.1388 18.8167V10.8167ZM7.22996 16.4357H13.0477V8.43568H7.22996V16.4357ZM9.12619 11.6472C9.22107 11.1753 9.6291 10.8167 10.1388 10.8167V18.8167C13.5196 18.8167 16.3289 16.4088 16.9692 13.2242L9.12619 11.6472ZM11.7861 7.26381H8.49152V15.2638H11.7861V7.26381ZM12.1881 12.7921L13.8354 8.80752L6.44228 5.75103L4.79498 9.73556L12.1881 12.7921ZM6.44228 8.80752L8.08958 12.7921L15.4827 9.73556L13.8354 5.75103L6.44228 8.80752ZM15.9855 2.30787C17.8846 2.30787 19.4232 3.84646 19.4232 5.74549H11.4232C11.4232 8.26475 13.4663 10.3079 15.9855 10.3079V2.30787ZM19.4232 5.74549C19.4232 7.64451 17.8846 9.18311 15.9855 9.18311V1.18311C13.4663 1.18311 11.4232 3.22623 11.4232 5.74549H19.4232ZM15.9855 9.18311C14.0867 9.18311 12.5479 7.64469 12.5479 5.74549H20.5479C20.5479 3.22605 18.5046 1.18311 15.9855 1.18311V9.18311ZM12.5479 5.74549C12.5479 3.84646 14.0865 2.30787 15.9855 2.30787V10.3079C18.5048 10.3079 20.5479 8.26475 20.5479 5.74549H12.5479ZM18.1646 8.80752L19.8119 12.7921L27.205 9.73556L25.5577 5.75103L18.1646 8.80752ZM23.5085 7.26381H20.2139V15.2638H23.5085V7.26381ZM23.9104 12.7921L25.5577 8.80752L18.1646 5.75103L16.5173 9.73556L23.9104 12.7921ZM21.8612 10.8167C22.3709 10.8167 22.7789 11.1753 22.8738 11.6472L15.0308 13.2242C15.6711 16.4088 18.4804 18.8167 21.8612 18.8167V10.8167ZM18.9523 16.4357H24.77V8.43568H18.9523V16.4357ZM20.8485 11.6472C20.9434 11.1753 21.3514 10.8167 21.8612 10.8167V18.8167C25.2418 18.8167 28.0512 16.4088 28.6915 13.2242L20.8485 11.6472Z" fill="#5D6C7B" mask="url(#path-2-inside-1_395_22247)"/>
</svg>
