<svg width="30" height="33" viewBox="0 0 30 33" fill="none" xmlns="http://www.w3.org/2000/svg">
<path d="M0.768906 24.4V30H1.44891V24.4H0.768906ZM3.64891 24.4L1.24091 27.04L3.76891 30H4.60891L2.06491 27.024L4.48891 24.4H3.64891ZM4.69016 28.16C4.69016 28.528 4.77282 28.8587 4.93816 29.152C5.10882 29.44 5.33816 29.6667 5.62616 29.832C5.91416 29.9973 6.23682 30.08 6.59416 30.08C6.95682 30.08 7.27949 29.9973 7.56216 29.832C7.85016 29.6667 8.07682 29.44 8.24216 29.152C8.41282 28.8587 8.49816 28.528 8.49816 28.16C8.49816 27.7867 8.41282 27.456 8.24216 27.168C8.07682 26.88 7.85016 26.6533 7.56216 26.488C7.27949 26.3227 6.95682 26.24 6.59416 26.24C6.23682 26.24 5.91416 26.3227 5.62616 26.488C5.33816 26.6533 5.10882 26.88 4.93816 27.168C4.77282 27.456 4.69016 27.7867 4.69016 28.16ZM5.33816 28.16C5.33816 27.904 5.39149 27.6773 5.49816 27.48C5.61016 27.2773 5.75949 27.12 5.94616 27.008C6.13816 26.896 6.35416 26.84 6.59416 26.84C6.83416 26.84 7.04749 26.896 7.23416 27.008C7.42616 27.12 7.57549 27.2773 7.68216 27.48C7.79416 27.6773 7.85016 27.904 7.85016 28.16C7.85016 28.416 7.79416 28.6427 7.68216 28.84C7.57549 29.0373 7.42616 29.1947 7.23416 29.312C7.04749 29.424 6.83416 29.48 6.59416 29.48C6.35416 29.48 6.13816 29.424 5.94616 29.312C5.75949 29.1947 5.61016 29.0373 5.49816 28.84C5.39149 28.6427 5.33816 28.416 5.33816 28.16ZM9.97734 31.76V26.32H9.33734V31.76H9.97734ZM13.0573 28.16C13.0573 27.76 12.9747 27.4187 12.8093 27.136C12.644 26.848 12.4227 26.6267 12.1453 26.472C11.8733 26.3173 11.5693 26.24 11.2333 26.24C10.9293 26.24 10.66 26.3173 10.4253 26.472C10.196 26.6267 10.0147 26.848 9.88134 27.136C9.75334 27.4187 9.68934 27.76 9.68934 28.16C9.68934 28.5547 9.75334 28.896 9.88134 29.184C10.0147 29.472 10.196 29.6933 10.4253 29.848C10.66 30.0027 10.9293 30.08 11.2333 30.08C11.5693 30.08 11.8733 30.0027 12.1453 29.848C12.4227 29.6933 12.644 29.472 12.8093 29.184C12.9747 28.896 13.0573 28.5547 13.0573 28.16ZM12.4093 28.16C12.4093 28.4427 12.3507 28.6827 12.2333 28.88C12.1213 29.0773 11.9693 29.2267 11.7773 29.328C11.5907 29.4293 11.3827 29.48 11.1533 29.48C10.9667 29.48 10.7827 29.4293 10.6013 29.328C10.42 29.2267 10.2707 29.0773 10.1533 28.88C10.036 28.6827 9.97734 28.4427 9.97734 28.16C9.97734 27.8773 10.036 27.6373 10.1533 27.44C10.2707 27.2427 10.42 27.0933 10.6013 26.992C10.7827 26.8907 10.9667 26.84 11.1533 26.84C11.3827 26.84 11.5907 26.8907 11.7773 26.992C11.9693 27.0933 12.1213 27.2427 12.2333 27.44C12.3507 27.6373 12.4093 27.8773 12.4093 28.16ZM15.2438 28.16C15.6652 28.16 15.9932 28.072 16.2278 27.896C16.4678 27.72 16.5878 27.4987 16.5878 27.232C16.5878 27.0507 16.5318 26.8853 16.4198 26.736C16.3132 26.5867 16.1638 26.4667 15.9718 26.376C15.7798 26.2853 15.5638 26.24 15.3238 26.24C15.0678 26.24 14.8385 26.2933 14.6358 26.4C14.4332 26.5013 14.2732 26.64 14.1558 26.816C14.0385 26.992 13.9798 27.184 13.9798 27.392H14.6278C14.6278 27.3067 14.6518 27.2213 14.6998 27.136C14.7478 27.0453 14.8225 26.9707 14.9238 26.912C15.0305 26.848 15.1638 26.816 15.3238 26.816C15.5158 26.816 15.6652 26.8587 15.7718 26.944C15.8785 27.024 15.9318 27.136 15.9318 27.28C15.9318 27.4133 15.8785 27.528 15.7718 27.624C15.6652 27.7147 15.4892 27.76 15.2438 27.76V28.16ZM15.3078 30.08C15.5692 30.08 15.8092 30.0347 16.0278 29.944C16.2465 29.848 16.4198 29.7147 16.5478 29.544C16.6812 29.368 16.7478 29.16 16.7478 28.92C16.7478 28.5733 16.6118 28.32 16.3398 28.16C16.0678 28 15.7025 27.92 15.2438 27.92V28.32C15.4305 28.32 15.5878 28.344 15.7158 28.392C15.8492 28.44 15.9478 28.5093 16.0118 28.6C16.0812 28.6907 16.1158 28.8 16.1158 28.928C16.1158 29.0453 16.0838 29.1493 16.0198 29.24C15.9558 29.3307 15.8625 29.4 15.7398 29.448C15.6225 29.496 15.4785 29.52 15.3078 29.52C15.0305 29.52 14.8305 29.4507 14.7078 29.312C14.5852 29.1733 14.5052 29.016 14.4678 28.84H13.8198C13.8625 29.1973 14.0118 29.4933 14.2678 29.728C14.5292 29.9627 14.8758 30.08 15.3078 30.08ZM20.7855 26.96L20.8255 26.04L17.7855 29.36L17.7455 30.28L20.7855 26.96ZM18.3855 26.32H17.7455V30.28L18.3855 29.4V26.32ZM20.8255 26.04L20.1855 26.92V30H20.8255V26.04ZM22.4408 28.36H25.1608V27.76H22.4408V28.36ZM24.7448 26.32V30H25.3848V26.32H24.7448ZM22.0648 26.32V30H22.7048V26.32H22.0648ZM26.8763 28.92C26.8763 28.7707 26.9109 28.6427 26.9803 28.536C27.0496 28.4293 27.1536 28.3467 27.2923 28.288C27.4363 28.2293 27.6149 28.2 27.8283 28.2C28.0629 28.2 28.2736 28.232 28.4603 28.296C28.6469 28.3547 28.8309 28.448 29.0123 28.576V28.2C28.9749 28.152 28.9056 28.0907 28.8043 28.016C28.7029 27.936 28.5669 27.8667 28.3963 27.808C28.2309 27.744 28.0309 27.712 27.7963 27.712C27.4763 27.712 27.1989 27.7627 26.9643 27.864C26.7296 27.96 26.5483 28.0987 26.4203 28.28C26.2923 28.4613 26.2283 28.6827 26.2283 28.944C26.2283 29.1947 26.2843 29.4053 26.3963 29.576C26.5136 29.7413 26.6683 29.8667 26.8603 29.952C27.0523 30.0373 27.2629 30.08 27.4923 30.08C27.7483 30.08 27.9803 30.0373 28.1883 29.952C28.3963 29.8613 28.5616 29.7333 28.6843 29.568C28.8123 29.3973 28.8763 29.1947 28.8763 28.96L28.7483 28.56C28.7483 28.7893 28.7003 28.9733 28.6043 29.112C28.5136 29.2507 28.3856 29.352 28.2203 29.416C28.0549 29.48 27.8656 29.512 27.6523 29.512C27.5083 29.512 27.3776 29.4907 27.2603 29.448C27.1429 29.4 27.0496 29.3333 26.9803 29.248C26.9109 29.1573 26.8763 29.048 26.8763 28.92ZM26.8763 27.184C26.9349 27.1413 27.0149 27.0907 27.1163 27.032C27.2229 26.968 27.3483 26.9147 27.4923 26.872C27.6363 26.824 27.7963 26.8 27.9723 26.8C28.1749 26.8 28.3536 26.848 28.5083 26.944C28.6683 27.0347 28.7483 27.1733 28.7483 27.36V30H29.3883V27.36C29.3883 27.12 29.3269 26.9173 29.2043 26.752C29.0869 26.5867 28.9216 26.4613 28.7083 26.376C28.5003 26.2853 28.2549 26.24 27.9723 26.24C27.6416 26.24 27.3589 26.2907 27.1243 26.392C26.8896 26.4933 26.7029 26.5947 26.5643 26.696L26.8763 27.184Z" fill="#5D6C7B"/>
<g clip-path="url(#clip0_395_22237)">
<path d="M24.7031 7.22929C24.439 6.89796 24.0428 6.70788 23.616 6.70788H19.7643L17.6756 1.92534C17.5461 1.62882 17.2007 1.49331 16.9042 1.62288C16.6076 1.75238 16.4722 2.0978 16.6017 2.39437L18.4855 6.70792H11.5145L13.3983 2.39437C13.5278 2.0978 13.3924 1.75241 13.0958 1.62288C12.7993 1.49331 12.4539 1.62874 12.3244 1.92534L10.2357 6.70792H6.38403C5.95723 6.70792 5.56102 6.89796 5.29692 7.22933C5.03766 7.55464 4.94199 7.97284 5.03446 8.37683L7.09137 17.3612C7.235 17.9885 7.78996 18.4267 8.44094 18.4267H21.5591C22.21 18.4267 22.765 17.9885 22.9086 17.3612L24.9655 8.37679C25.058 7.9728 24.9623 7.5546 24.7031 7.22929ZM21.5591 17.2548H8.44094C8.34145 17.2548 8.2543 17.1895 8.23371 17.0996L6.1768 8.1153C6.16067 8.0448 6.18774 7.99175 6.21336 7.95968C6.23711 7.92984 6.2909 7.8798 6.38403 7.8798H9.72399L9.57051 8.23124C9.44102 8.5278 9.57641 8.8732 9.87297 9.00273C9.9493 9.03609 10.0288 9.05187 10.1072 9.05187C10.333 9.05187 10.5482 8.9205 10.6444 8.7003L11.0027 7.87988H18.9973L19.3557 8.7003C19.4518 8.92054 19.6671 9.05187 19.8929 9.05187C19.9712 9.05187 20.0508 9.03609 20.1271 9.00273C20.4237 8.87323 20.5591 8.5278 20.4296 8.23124L20.2761 7.8798H23.6161C23.7092 7.8798 23.763 7.92984 23.7867 7.95968C23.8123 7.99179 23.8394 8.04484 23.8233 8.11527L21.7664 17.0996C21.7457 17.1895 21.6586 17.2548 21.5591 17.2548Z" fill="#5D6C7B"/>
<path d="M11.4844 10.4189C11.1608 10.4189 10.8984 10.6813 10.8984 11.0049V15.3018C10.8984 15.6254 11.1608 15.8877 11.4844 15.8877C11.808 15.8877 12.0703 15.6254 12.0703 15.3018V11.0049C12.0703 10.6813 11.808 10.4189 11.4844 10.4189Z" fill="#5D6C7B"/>
<path d="M15 10.4189C14.6764 10.4189 14.4141 10.6813 14.4141 11.0049V15.3018C14.4141 15.6254 14.6764 15.8877 15 15.8877C15.3236 15.8877 15.5859 15.6254 15.5859 15.3018V11.0049C15.5859 10.6813 15.3236 10.4189 15 10.4189Z" fill="#5D6C7B"/>
<path d="M18.5156 10.4189C18.192 10.4189 17.9297 10.6813 17.9297 11.0049V15.3018C17.9297 15.6254 18.192 15.8877 18.5156 15.8877C18.8392 15.8877 19.1016 15.6254 19.1016 15.3018V11.0049C19.1015 10.6813 18.8392 10.4189 18.5156 10.4189Z" fill="#5D6C7B"/>
</g>
<defs>
<clipPath id="clip0_395_22237">
<rect width="20" height="20" fill="white" transform="translate(5)"/>
</clipPath>
</defs>
</svg>
