<svg width="26" height="33" viewBox="0 0 26 33" fill="none" xmlns="http://www.w3.org/2000/svg">
<path d="M0.64 24.4V30H1.32V24.4H0.64ZM3.52 24.4L1.112 27.04L3.64 30H4.48L1.936 27.024L4.36 24.4H3.52ZM5.41144 28.92C5.41144 28.7707 5.4461 28.6427 5.51544 28.536C5.58477 28.4293 5.68877 28.3467 5.82744 28.288C5.97144 28.2293 6.1501 28.2 6.36344 28.2C6.5981 28.2 6.80877 28.232 6.99544 28.296C7.1821 28.3547 7.3661 28.448 7.54744 28.576V28.2C7.5101 28.152 7.44077 28.0907 7.33944 28.016C7.2381 27.936 7.1021 27.8667 6.93144 27.808C6.7661 27.744 6.5661 27.712 6.33144 27.712C6.01144 27.712 5.7341 27.7627 5.49944 27.864C5.26477 27.96 5.08344 28.0987 4.95544 28.28C4.82744 28.4613 4.76344 28.6827 4.76344 28.944C4.76344 29.1947 4.81944 29.4053 4.93144 29.576C5.04877 29.7413 5.20344 29.8667 5.39544 29.952C5.58744 30.0373 5.7981 30.08 6.02744 30.08C6.28344 30.08 6.51544 30.0373 6.72344 29.952C6.93144 29.8613 7.09677 29.7333 7.21944 29.568C7.34744 29.3973 7.41144 29.1947 7.41144 28.96L7.28344 28.56C7.28344 28.7893 7.23544 28.9733 7.13944 29.112C7.04877 29.2507 6.92077 29.352 6.75544 29.416C6.5901 29.48 6.40077 29.512 6.18744 29.512C6.04344 29.512 5.91277 29.4907 5.79544 29.448C5.6781 29.4 5.58477 29.3333 5.51544 29.248C5.4461 29.1573 5.41144 29.048 5.41144 28.92ZM5.41144 27.184C5.4701 27.1413 5.5501 27.0907 5.65144 27.032C5.7581 26.968 5.88344 26.9147 6.02744 26.872C6.17144 26.824 6.33144 26.8 6.50744 26.8C6.7101 26.8 6.88877 26.848 7.04344 26.944C7.20344 27.0347 7.28344 27.1733 7.28344 27.36V30H7.92344V27.36C7.92344 27.12 7.8621 26.9173 7.73944 26.752C7.6221 26.5867 7.45677 26.4613 7.24344 26.376C7.03544 26.2853 6.7901 26.24 6.50744 26.24C6.17677 26.24 5.8941 26.2907 5.65944 26.392C5.42477 26.4933 5.2381 26.5947 5.09944 26.696L5.41144 27.184ZM8.44625 26.32V26.92H10.6063V26.32H8.44625ZM9.20625 26.48V30H9.84625V26.48H9.20625ZM11.5364 28.92C11.5364 28.7707 11.5711 28.6427 11.6404 28.536C11.7098 28.4293 11.8138 28.3467 11.9524 28.288C12.0964 28.2293 12.2751 28.2 12.4884 28.2C12.7231 28.2 12.9338 28.232 13.1204 28.296C13.3071 28.3547 13.4911 28.448 13.6724 28.576V28.2C13.6351 28.152 13.5658 28.0907 13.4644 28.016C13.3631 27.936 13.2271 27.8667 13.0564 27.808C12.8911 27.744 12.6911 27.712 12.4564 27.712C12.1364 27.712 11.8591 27.7627 11.6244 27.864C11.3898 27.96 11.2084 28.0987 11.0804 28.28C10.9524 28.4613 10.8884 28.6827 10.8884 28.944C10.8884 29.1947 10.9444 29.4053 11.0564 29.576C11.1738 29.7413 11.3284 29.8667 11.5204 29.952C11.7124 30.0373 11.9231 30.08 12.1524 30.08C12.4084 30.08 12.6404 30.0373 12.8484 29.952C13.0564 29.8613 13.2218 29.7333 13.3444 29.568C13.4724 29.3973 13.5364 29.1947 13.5364 28.96L13.4084 28.56C13.4084 28.7893 13.3604 28.9733 13.2644 29.112C13.1738 29.2507 13.0458 29.352 12.8804 29.416C12.7151 29.48 12.5258 29.512 12.3124 29.512C12.1684 29.512 12.0378 29.4907 11.9204 29.448C11.8031 29.4 11.7098 29.3333 11.6404 29.248C11.5711 29.1573 11.5364 29.048 11.5364 28.92ZM11.5364 27.184C11.5951 27.1413 11.6751 27.0907 11.7764 27.032C11.8831 26.968 12.0084 26.9147 12.1524 26.872C12.2964 26.824 12.4564 26.8 12.6324 26.8C12.8351 26.8 13.0138 26.848 13.1684 26.944C13.3284 27.0347 13.4084 27.1733 13.4084 27.36V30H14.0484V27.36C14.0484 27.12 13.9871 26.9173 13.8644 26.752C13.7471 26.5867 13.5818 26.4613 13.3684 26.376C13.1604 26.2853 12.9151 26.24 12.6324 26.24C12.3018 26.24 12.0191 26.2907 11.7844 26.392C11.5498 26.4933 11.3631 26.5947 11.2244 26.696L11.5364 27.184ZM18.3553 26.32H15.1953V28.72C15.1953 28.9813 15.1366 29.1627 15.0193 29.264C14.9073 29.3653 14.7713 29.416 14.6113 29.416V30C14.8886 30 15.1179 29.9547 15.2993 29.864C15.4806 29.768 15.6139 29.6267 15.6993 29.44C15.7899 29.248 15.8353 29.008 15.8353 28.72V26.92H17.7153V30H18.3553V26.32ZM19.2722 28.16C19.2722 28.528 19.3549 28.8587 19.5202 29.152C19.6909 29.44 19.9202 29.6667 20.2082 29.832C20.4962 29.9973 20.8189 30.08 21.1762 30.08C21.5389 30.08 21.8615 29.9973 22.1442 29.832C22.4322 29.6667 22.6589 29.44 22.8242 29.152C22.9949 28.8587 23.0802 28.528 23.0802 28.16C23.0802 27.7867 22.9949 27.456 22.8242 27.168C22.6589 26.88 22.4322 26.6533 22.1442 26.488C21.8615 26.3227 21.5389 26.24 21.1762 26.24C20.8189 26.24 20.4962 26.3227 20.2082 26.488C19.9202 26.6533 19.6909 26.88 19.5202 27.168C19.3549 27.456 19.2722 27.7867 19.2722 28.16ZM19.9202 28.16C19.9202 27.904 19.9735 27.6773 20.0802 27.48C20.1922 27.2773 20.3415 27.12 20.5282 27.008C20.7202 26.896 20.9362 26.84 21.1762 26.84C21.4162 26.84 21.6295 26.896 21.8162 27.008C22.0082 27.12 22.1575 27.2773 22.2642 27.48C22.3762 27.6773 22.4322 27.904 22.4322 28.16C22.4322 28.416 22.3762 28.6427 22.2642 28.84C22.1575 29.0373 22.0082 29.1947 21.8162 29.312C21.6295 29.424 21.4162 29.48 21.1762 29.48C20.9362 29.48 20.7202 29.424 20.5282 29.312C20.3415 29.1947 20.1922 29.0373 20.0802 28.84C19.9735 28.6427 19.9202 28.416 19.9202 28.16ZM23.9994 26.32V30H24.6394V26.92H25.9594V26.32H23.9994Z" fill="#6F73EE"/>
<path d="M12.1156 1.60938C7.9833 1.60938 4.61719 4.97548 4.61719 9.10776C4.61719 13.24 7.9833 16.6127 12.1156 16.6127C13.8806 16.6127 15.5038 15.9941 16.7868 14.9671L19.9102 18.0889C20.0678 18.24 20.2783 18.3233 20.4966 18.3211C20.715 18.3189 20.9237 18.2312 21.0782 18.0769C21.2327 17.9227 21.3207 17.714 21.3232 17.4957C21.3257 17.2774 21.2427 17.0667 21.0918 16.9089L17.9684 13.7856C18.9963 12.5006 19.6156 10.8748 19.6156 9.10776C19.6156 4.97548 16.2478 1.60938 12.1156 1.60938ZM12.1156 3.27607C15.3471 3.27607 17.9473 5.87623 17.9473 9.10776C17.9473 12.3393 15.3471 14.946 12.1156 14.946C8.88403 14.946 6.28385 12.3393 6.28385 9.10776C6.28385 5.87623 8.88403 3.27607 12.1156 3.27607Z" fill="#6F73EE"/>
</svg>
