<svg width="41" height="32" viewBox="0 0 41 32" fill="none" xmlns="http://www.w3.org/2000/svg">
<path d="M5.86375 24.16L5.90375 23.12L1.02375 28.24L0.98375 29.28L5.86375 24.16ZM1.66375 23.4H0.98375V29.28L1.66375 28.4V23.4ZM5.90375 23.12L5.22375 24V29H5.90375V23.12ZM8.45088 27.16C8.87221 27.16 9.20021 27.072 9.43488 26.896C9.67488 26.72 9.79488 26.4987 9.79488 26.232C9.79488 26.0507 9.73888 25.8853 9.62688 25.736C9.52021 25.5867 9.37088 25.4667 9.17888 25.376C8.98688 25.2853 8.77088 25.24 8.53088 25.24C8.27488 25.24 8.04554 25.2933 7.84288 25.4C7.64021 25.5013 7.48021 25.64 7.36288 25.816C7.24554 25.992 7.18688 26.184 7.18688 26.392H7.83488C7.83488 26.3067 7.85888 26.2213 7.90688 26.136C7.95488 26.0453 8.02954 25.9707 8.13088 25.912C8.23754 25.848 8.37088 25.816 8.53088 25.816C8.72288 25.816 8.87221 25.8587 8.97888 25.944C9.08554 26.024 9.13888 26.136 9.13888 26.28C9.13888 26.4133 9.08554 26.528 8.97888 26.624C8.87221 26.7147 8.69621 26.76 8.45088 26.76V27.16ZM8.51488 29.08C8.77621 29.08 9.01621 29.0347 9.23488 28.944C9.45354 28.848 9.62688 28.7147 9.75488 28.544C9.88821 28.368 9.95488 28.16 9.95488 27.92C9.95488 27.5733 9.81888 27.32 9.54688 27.16C9.27488 27 8.90954 26.92 8.45088 26.92V27.32C8.63754 27.32 8.79488 27.344 8.92288 27.392C9.05621 27.44 9.15488 27.5093 9.21888 27.6C9.28821 27.6907 9.32288 27.8 9.32288 27.928C9.32288 28.0453 9.29088 28.1493 9.22688 28.24C9.16288 28.3307 9.06954 28.4 8.94688 28.448C8.82954 28.496 8.68554 28.52 8.51488 28.52C8.23754 28.52 8.03754 28.4507 7.91488 28.312C7.79221 28.1733 7.71221 28.016 7.67488 27.84H7.02688C7.06954 28.1973 7.21888 28.4933 7.47488 28.728C7.73621 28.9627 8.08288 29.08 8.51488 29.08ZM12.4965 25.84C12.7365 25.84 12.9498 25.896 13.1365 26.008C13.3285 26.12 13.4778 26.2773 13.5845 26.48C13.6965 26.6773 13.7525 26.904 13.7525 27.16C13.7525 27.416 13.6965 27.6427 13.5845 27.84C13.4778 28.0373 13.3285 28.1947 13.1365 28.312C12.9498 28.424 12.7365 28.48 12.4965 28.48C12.2565 28.48 12.0405 28.424 11.8485 28.312C11.6618 28.1947 11.5125 28.0373 11.4005 27.84C11.2885 27.6427 11.2325 27.416 11.2325 27.16L10.5925 26.68C10.5925 27.208 10.6752 27.6507 10.8405 28.008C11.0112 28.3653 11.2405 28.6347 11.5285 28.816C11.8165 28.992 12.1392 29.08 12.4965 29.08C12.8592 29.08 13.1818 28.9973 13.4645 28.832C13.7525 28.6667 13.9792 28.44 14.1445 28.152C14.3152 27.8587 14.4005 27.528 14.4005 27.16C14.4005 26.7867 14.3152 26.456 14.1445 26.168C13.9792 25.88 13.7525 25.6533 13.4645 25.488C13.1818 25.3227 12.8592 25.24 12.4965 25.24V25.84ZM10.9445 27.16H11.2325C11.2325 26.9467 11.2698 26.76 11.3445 26.6C11.4245 26.4347 11.5258 26.296 11.6485 26.184C11.7765 26.072 11.9152 25.9867 12.0645 25.928C12.2138 25.8693 12.3578 25.84 12.4965 25.84V25.24C12.2672 25.24 12.0565 25.2853 11.8645 25.376C11.6778 25.4613 11.5152 25.5867 11.3765 25.752C11.2378 25.9173 11.1312 26.12 11.0565 26.36C10.9818 26.5947 10.9445 26.8613 10.9445 27.16ZM10.5925 26.68L11.1525 27.104V26.28C11.1525 26.0133 11.1872 25.7467 11.2565 25.48C11.3258 25.2133 11.4512 24.9733 11.6325 24.76C11.8192 24.5413 12.0778 24.3787 12.4085 24.272C12.7018 24.176 12.9632 24.056 13.1925 23.912C13.4272 23.768 13.6165 23.6 13.7605 23.408C13.9045 23.2107 13.9898 22.9947 14.0165 22.76H13.3845C13.3472 22.952 13.2378 23.136 13.0565 23.312C12.8805 23.4827 12.6112 23.6293 12.2485 23.752C11.8218 23.9013 11.4858 24.1093 11.2405 24.376C11.0005 24.6427 10.8325 24.968 10.7365 25.352C10.6405 25.736 10.5925 26.1787 10.5925 26.68ZM15.8797 30.76V25.32H15.2397V30.76H15.8797ZM18.9597 27.16C18.9597 26.76 18.877 26.4187 18.7117 26.136C18.5464 25.848 18.325 25.6267 18.0477 25.472C17.7757 25.3173 17.4717 25.24 17.1357 25.24C16.8317 25.24 16.5624 25.3173 16.3277 25.472C16.0984 25.6267 15.917 25.848 15.7837 26.136C15.6557 26.4187 15.5917 26.76 15.5917 27.16C15.5917 27.5547 15.6557 27.896 15.7837 28.184C15.917 28.472 16.0984 28.6933 16.3277 28.848C16.5624 29.0027 16.8317 29.08 17.1357 29.08C17.4717 29.08 17.7757 29.0027 18.0477 28.848C18.325 28.6933 18.5464 28.472 18.7117 28.184C18.877 27.896 18.9597 27.5547 18.9597 27.16ZM18.3117 27.16C18.3117 27.4427 18.253 27.6827 18.1357 27.88C18.0237 28.0773 17.8717 28.2267 17.6797 28.328C17.493 28.4293 17.285 28.48 17.0557 28.48C16.869 28.48 16.685 28.4293 16.5037 28.328C16.3224 28.2267 16.173 28.0773 16.0557 27.88C15.9384 27.6827 15.8797 27.4427 15.8797 27.16C15.8797 26.8773 15.9384 26.6373 16.0557 26.44C16.173 26.2427 16.3224 26.0933 16.5037 25.992C16.685 25.8907 16.869 25.84 17.0557 25.84C17.285 25.84 17.493 25.8907 17.6797 25.992C17.8717 26.0933 18.0237 26.2427 18.1357 26.44C18.253 26.6373 18.3117 26.8773 18.3117 27.16ZM20.1302 27.92C20.1302 27.7707 20.1649 27.6427 20.2342 27.536C20.3035 27.4293 20.4075 27.3467 20.5462 27.288C20.6902 27.2293 20.8689 27.2 21.0822 27.2C21.3169 27.2 21.5275 27.232 21.7142 27.296C21.9009 27.3547 22.0849 27.448 22.2662 27.576V27.2C22.2289 27.152 22.1595 27.0907 22.0582 27.016C21.9569 26.936 21.8209 26.8667 21.6502 26.808C21.4849 26.744 21.2849 26.712 21.0502 26.712C20.7302 26.712 20.4529 26.7627 20.2182 26.864C19.9835 26.96 19.8022 27.0987 19.6742 27.28C19.5462 27.4613 19.4822 27.6827 19.4822 27.944C19.4822 28.1947 19.5382 28.4053 19.6502 28.576C19.7675 28.7413 19.9222 28.8667 20.1142 28.952C20.3062 29.0373 20.5169 29.08 20.7462 29.08C21.0022 29.08 21.2342 29.0373 21.4422 28.952C21.6502 28.8613 21.8155 28.7333 21.9382 28.568C22.0662 28.3973 22.1302 28.1947 22.1302 27.96L22.0022 27.56C22.0022 27.7893 21.9542 27.9733 21.8582 28.112C21.7675 28.2507 21.6395 28.352 21.4742 28.416C21.3089 28.48 21.1195 28.512 20.9062 28.512C20.7622 28.512 20.6315 28.4907 20.5142 28.448C20.3969 28.4 20.3035 28.3333 20.2342 28.248C20.1649 28.1573 20.1302 28.048 20.1302 27.92ZM20.1302 26.184C20.1889 26.1413 20.2689 26.0907 20.3702 26.032C20.4769 25.968 20.6022 25.9147 20.7462 25.872C20.8902 25.824 21.0502 25.8 21.2262 25.8C21.4289 25.8 21.6075 25.848 21.7622 25.944C21.9222 26.0347 22.0022 26.1733 22.0022 26.36V29H22.6422V26.36C22.6422 26.12 22.5809 25.9173 22.4582 25.752C22.3409 25.5867 22.1755 25.4613 21.9622 25.376C21.7542 25.2853 21.5089 25.24 21.2262 25.24C20.8955 25.24 20.6129 25.2907 20.3782 25.392C20.1435 25.4933 19.9569 25.5947 19.8182 25.696L20.1302 26.184ZM24.101 27.36H26.821V26.76H24.101V27.36ZM26.405 25.32V29H27.045V25.32H26.405ZM23.725 25.32V29H24.365V25.32H23.725ZM28.6244 27.36H31.3444V26.76H28.6244V27.36ZM30.9284 25.32V29H31.5684V25.32H30.9284ZM28.2484 25.32V29H28.8884V25.32H28.2484ZM32.4519 27.16C32.4519 27.528 32.5345 27.8587 32.6999 28.152C32.8705 28.44 33.0999 28.6667 33.3879 28.832C33.6759 28.9973 33.9985 29.08 34.3559 29.08C34.7185 29.08 35.0412 28.9973 35.3239 28.832C35.6119 28.6667 35.8385 28.44 36.0039 28.152C36.1745 27.8587 36.2599 27.528 36.2599 27.16C36.2599 26.7867 36.1745 26.456 36.0039 26.168C35.8385 25.88 35.6119 25.6533 35.3239 25.488C35.0412 25.3227 34.7185 25.24 34.3559 25.24C33.9985 25.24 33.6759 25.3227 33.3879 25.488C33.0999 25.6533 32.8705 25.88 32.6999 26.168C32.5345 26.456 32.4519 26.7867 32.4519 27.16ZM33.0999 27.16C33.0999 26.904 33.1532 26.6773 33.2599 26.48C33.3719 26.2773 33.5212 26.12 33.7079 26.008C33.8999 25.896 34.1159 25.84 34.3559 25.84C34.5959 25.84 34.8092 25.896 34.9959 26.008C35.1879 26.12 35.3372 26.2773 35.4439 26.48C35.5559 26.6773 35.6119 26.904 35.6119 27.16C35.6119 27.416 35.5559 27.6427 35.4439 27.84C35.3372 28.0373 35.1879 28.1947 34.9959 28.312C34.8092 28.424 34.5959 28.48 34.3559 28.48C34.1159 28.48 33.8999 28.424 33.7079 28.312C33.5212 28.1947 33.3719 28.0373 33.2599 27.84C33.1532 27.6427 33.0999 27.416 33.0999 27.16ZM37.2271 27.32H40.3711C40.3764 27.288 40.3791 27.256 40.3791 27.224C40.3791 27.192 40.3791 27.16 40.3791 27.128C40.3791 26.7387 40.3071 26.4053 40.1631 26.128C40.0191 25.8453 39.8164 25.6267 39.5551 25.472C39.2937 25.3173 38.9897 25.24 38.6431 25.24C38.3284 25.24 38.0431 25.304 37.7871 25.432C37.5364 25.56 37.3311 25.7387 37.1711 25.968C37.0111 26.1973 36.9044 26.464 36.8511 26.768C36.8404 26.832 36.8324 26.896 36.8271 26.96C36.8217 27.024 36.8191 27.0907 36.8191 27.16C36.8191 27.528 36.8937 27.8587 37.0431 28.152C37.1977 28.44 37.4057 28.6667 37.6671 28.832C37.9337 28.9973 38.2324 29.08 38.5631 29.08C38.8831 29.08 39.1497 29.0427 39.3631 28.968C39.5764 28.888 39.7577 28.7787 39.9071 28.64C40.0564 28.496 40.1924 28.3307 40.3151 28.144L39.7951 27.816C39.7151 27.9493 39.6191 28.0667 39.5071 28.168C39.3951 28.264 39.2671 28.3413 39.1231 28.4C38.9844 28.4533 38.8244 28.48 38.6431 28.48C38.4031 28.48 38.1951 28.4293 38.0191 28.328C37.8431 28.2267 37.7071 28.0773 37.6111 27.88C37.5151 27.6827 37.4671 27.4427 37.4671 27.16L37.4831 26.92C37.4831 26.6907 37.5337 26.4933 37.6351 26.328C37.7417 26.1573 37.8831 26.0267 38.0591 25.936C38.2351 25.8453 38.4297 25.8 38.6431 25.8C38.8564 25.8 39.0351 25.8427 39.1791 25.928C39.3284 26.008 39.4431 26.1227 39.5231 26.272C39.6084 26.416 39.6617 26.584 39.6831 26.776H37.2271V27.32Z" fill="#5D6C7B"/>
<path d="M27.9951 5.51484C27.7344 4.90528 27.3586 4.35291 26.8886 3.88864C26.4182 3.42298 25.8637 3.05293 25.2551 2.79861C24.624 2.53385 23.9471 2.39833 23.2637 2.39992C22.305 2.39992 21.3696 2.66506 20.5568 3.16588C20.3623 3.28569 20.1775 3.41727 20.0025 3.56065C19.8275 3.41727 19.6428 3.28569 19.4483 3.16588C18.6354 2.66506 17.7 2.39992 16.7413 2.39992C16.051 2.39992 15.382 2.53347 14.75 2.79861C14.1394 3.05393 13.589 3.4212 13.1165 3.88864C12.6458 4.35239 12.2699 4.90489 12.0099 5.51484C11.7396 6.14922 11.6016 6.82287 11.6016 7.51617C11.6016 8.17019 11.7338 8.8517 11.9963 9.54499C12.2161 10.1244 12.5311 10.7254 12.9337 11.3322C13.5715 12.2926 14.4486 13.2943 15.5376 14.3097C17.3422 15.9929 19.1294 17.1555 19.2052 17.2027L19.6661 17.5012C19.8703 17.6328 20.1328 17.6328 20.337 17.5012L20.7979 17.2027C20.8737 17.1536 22.6589 15.9929 24.4655 14.3097C25.5545 13.2943 26.4316 12.2926 27.0694 11.3322C27.472 10.7254 27.789 10.1244 28.0068 9.54499C28.2693 8.8517 28.4015 8.17019 28.4015 7.51617C28.4035 6.82287 28.2654 6.14922 27.9951 5.51484ZM20.0025 15.9477C20.0025 15.9477 13.0795 11.4678 13.0795 7.51617C13.0795 5.51484 14.7189 3.89257 16.7413 3.89257C18.1629 3.89257 19.3958 4.69388 20.0025 5.86443C20.6093 4.69388 21.8422 3.89257 23.2637 3.89257C25.2862 3.89257 26.9255 5.51484 26.9255 7.51617C26.9255 11.4678 20.0025 15.9477 20.0025 15.9477Z" fill="#5D6C7B"/>
</svg>
