<svg width="28" height="33" viewBox="0 0 28 33" fill="none" xmlns="http://www.w3.org/2000/svg">
<path d="M22.4884 9.86431L14.9415 2.32134L14.4356 1.81548C14.3204 1.70098 14.1645 1.63672 14.002 1.63672C13.8396 1.63672 13.6837 1.70098 13.5684 1.81548L5.51571 9.86431C5.3976 9.98195 5.30426 10.1221 5.2412 10.2764C5.17813 10.4307 5.14662 10.5961 5.14852 10.7627C5.15633 11.4502 5.7286 11.9991 6.4161 11.9991H7.24617V18.3604H20.7579V11.9991H21.6055C21.9395 11.9991 22.254 11.8682 22.4903 11.6319C22.6067 11.5159 22.6989 11.378 22.7616 11.2261C22.8243 11.0742 22.8562 10.9114 22.8555 10.7471C22.8555 10.4151 22.7247 10.1006 22.4884 9.86431ZM15.0958 16.9542H12.9083V12.9698H15.0958V16.9542ZM19.3516 10.5928V16.9542H16.3458V12.501C16.3458 12.0694 15.9962 11.7198 15.5645 11.7198H12.4395C12.0079 11.7198 11.6583 12.0694 11.6583 12.501V16.9542H8.65242V10.5928H6.77742L14.004 3.37212L14.4552 3.82329L21.2286 10.5928H19.3516Z" fill="#5D6C7B"/>
<path d="M1.10094 24.4V30H1.78094V25.04H3.86094V24.4H1.10094ZM7.12088 26.32H3.96088V28.72C3.96088 28.9813 3.90221 29.1627 3.78488 29.264C3.67288 29.3653 3.53688 29.416 3.37688 29.416V30C3.65421 30 3.88354 29.9547 4.06488 29.864C4.24621 29.768 4.37954 29.6267 4.46488 29.44C4.55554 29.248 4.60088 29.008 4.60088 28.72V26.92H6.48088V30H7.12088V26.32ZM8.64581 28.92C8.64581 28.7707 8.68048 28.6427 8.74981 28.536C8.81915 28.4293 8.92315 28.3467 9.06181 28.288C9.20581 28.2293 9.38448 28.2 9.59781 28.2C9.83248 28.2 10.0431 28.232 10.2298 28.296C10.4165 28.3547 10.6005 28.448 10.7818 28.576V28.2C10.7445 28.152 10.6751 28.0907 10.5738 28.016C10.4725 27.936 10.3365 27.8667 10.1658 27.808C10.0005 27.744 9.80048 27.712 9.56581 27.712C9.24581 27.712 8.96848 27.7627 8.73381 27.864C8.49915 27.96 8.31781 28.0987 8.18981 28.28C8.06181 28.4613 7.99781 28.6827 7.99781 28.944C7.99781 29.1947 8.05381 29.4053 8.16581 29.576C8.28315 29.7413 8.43781 29.8667 8.62981 29.952C8.82181 30.0373 9.03248 30.08 9.26181 30.08C9.51781 30.08 9.74981 30.0373 9.95781 29.952C10.1658 29.8613 10.3311 29.7333 10.4538 29.568C10.5818 29.3973 10.6458 29.1947 10.6458 28.96L10.5178 28.56C10.5178 28.7893 10.4698 28.9733 10.3738 29.112C10.2831 29.2507 10.1551 29.352 9.98981 29.416C9.82448 29.48 9.63515 29.512 9.42181 29.512C9.27781 29.512 9.14715 29.4907 9.02981 29.448C8.91248 29.4 8.81915 29.3333 8.74981 29.248C8.68048 29.1573 8.64581 29.048 8.64581 28.92ZM8.64581 27.184C8.70448 27.1413 8.78448 27.0907 8.88581 27.032C8.99248 26.968 9.11781 26.9147 9.26181 26.872C9.40581 26.824 9.56581 26.8 9.74181 26.8C9.94448 26.8 10.1231 26.848 10.2778 26.944C10.4378 27.0347 10.5178 27.1733 10.5178 27.36V30H11.1578V27.36C11.1578 27.12 11.0965 26.9173 10.9738 26.752C10.8565 26.5867 10.6911 26.4613 10.4778 26.376C10.2698 26.2853 10.0245 26.24 9.74181 26.24C9.41115 26.24 9.12848 26.2907 8.89381 26.392C8.65915 26.4933 8.47248 26.5947 8.33381 26.696L8.64581 27.184ZM12.6166 28.08V28.416H13.6806C13.8033 28.416 13.9073 28.4293 13.9926 28.456C14.0833 28.4773 14.1553 28.512 14.2086 28.56C14.2673 28.608 14.31 28.6613 14.3366 28.72C14.3686 28.7787 14.3846 28.8453 14.3846 28.92C14.3846 29.064 14.326 29.1867 14.2086 29.288C14.0966 29.3893 13.9206 29.44 13.6806 29.44H12.6166V30H13.8406C14.262 30 14.5633 29.904 14.7446 29.712C14.9313 29.5147 15.0246 29.2773 15.0246 29C15.0246 28.76 14.966 28.5733 14.8486 28.44C14.7313 28.3067 14.5713 28.2133 14.3686 28.16C14.166 28.1067 13.9366 28.08 13.6806 28.08H12.6166ZM12.6166 28.24H13.6006C13.83 28.24 14.038 28.208 14.2246 28.144C14.4166 28.0747 14.5713 27.9733 14.6886 27.84C14.806 27.7013 14.8646 27.528 14.8646 27.32C14.8646 27.08 14.806 26.888 14.6886 26.744C14.5713 26.5947 14.4166 26.488 14.2246 26.424C14.038 26.3547 13.83 26.32 13.6006 26.32H12.6166V26.88H13.6006C13.7926 26.88 13.9446 26.9253 14.0566 27.016C14.1686 27.1013 14.2246 27.216 14.2246 27.36C14.2246 27.4293 14.2086 27.496 14.1766 27.56C14.15 27.6187 14.11 27.672 14.0566 27.72C14.0033 27.768 13.9366 27.8053 13.8566 27.832C13.782 27.8533 13.6966 27.864 13.6006 27.864H12.6166V28.24ZM12.2406 26.32V30H12.8806V26.32H12.2406ZM16.2416 28.36H18.9616V27.76H16.2416V28.36ZM18.5456 26.32V30H19.1856V26.32H18.5456ZM15.8656 26.32V30H16.5056V26.32H15.8656ZM20.6771 28.92C20.6771 28.7707 20.7117 28.6427 20.7811 28.536C20.8504 28.4293 20.9544 28.3467 21.0931 28.288C21.2371 28.2293 21.4157 28.2 21.6291 28.2C21.8637 28.2 22.0744 28.232 22.2611 28.296C22.4477 28.3547 22.6317 28.448 22.8131 28.576V28.2C22.7757 28.152 22.7064 28.0907 22.6051 28.016C22.5037 27.936 22.3677 27.8667 22.1971 27.808C22.0317 27.744 21.8317 27.712 21.5971 27.712C21.2771 27.712 20.9997 27.7627 20.7651 27.864C20.5304 27.96 20.3491 28.0987 20.2211 28.28C20.0931 28.4613 20.0291 28.6827 20.0291 28.944C20.0291 29.1947 20.0851 29.4053 20.1971 29.576C20.3144 29.7413 20.4691 29.8667 20.6611 29.952C20.8531 30.0373 21.0637 30.08 21.2931 30.08C21.5491 30.08 21.7811 30.0373 21.9891 29.952C22.1971 29.8613 22.3624 29.7333 22.4851 29.568C22.6131 29.3973 22.6771 29.1947 22.6771 28.96L22.5491 28.56C22.5491 28.7893 22.5011 28.9733 22.4051 29.112C22.3144 29.2507 22.1864 29.352 22.0211 29.416C21.8557 29.48 21.6664 29.512 21.4531 29.512C21.3091 29.512 21.1784 29.4907 21.0611 29.448C20.9437 29.4 20.8504 29.3333 20.7811 29.248C20.7117 29.1573 20.6771 29.048 20.6771 28.92ZM20.6771 27.184C20.7357 27.1413 20.8157 27.0907 20.9171 27.032C21.0237 26.968 21.1491 26.9147 21.2931 26.872C21.4371 26.824 21.5971 26.8 21.7731 26.8C21.9757 26.8 22.1544 26.848 22.3091 26.944C22.4691 27.0347 22.5491 27.1733 22.5491 27.36V30H23.1891V27.36C23.1891 27.12 23.1277 26.9173 23.0051 26.752C22.8877 26.5867 22.7224 26.4613 22.5091 26.376C22.3011 26.2853 22.0557 26.24 21.7731 26.24C21.4424 26.24 21.1597 26.2907 20.9251 26.392C20.6904 26.4933 20.5037 26.5947 20.3651 26.696L20.6771 27.184ZM24.7999 30L26.1599 28.08H25.4559L24.0959 30H24.7999ZM27.1359 30V26.32H26.4959V30H27.1359ZM26.7599 27.968H25.6159C25.4612 27.968 25.3305 27.9493 25.2239 27.912C25.1225 27.8693 25.0452 27.808 24.9919 27.728C24.9385 27.648 24.9119 27.5467 24.9119 27.424C24.9119 27.3013 24.9385 27.2 24.9919 27.12C25.0452 27.04 25.1225 26.9813 25.2239 26.944C25.3305 26.9013 25.4612 26.88 25.6159 26.88H26.7599V26.32H25.6159C25.3652 26.32 25.1359 26.3573 24.9279 26.432C24.7252 26.5067 24.5652 26.624 24.4479 26.784C24.3305 26.944 24.2719 27.1573 24.2719 27.424C24.2719 27.6853 24.3305 27.8987 24.4479 28.064C24.5652 28.224 24.7252 28.3413 24.9279 28.416C25.1359 28.4907 25.3652 28.528 25.6159 28.528H26.7599V27.968Z" fill="#5D6C7B"/>
</svg>
